<svg id="visual" viewBox="0 0 900 600" width="900" height="600" xmlns="http://www.w3.org/2000/svg" xmlns:xlink="http://www.w3.org/1999/xlink" version="1.1"><rect x="0" y="0" width="900" height="600" fill="#C3CAFF"></rect><path d="M0 233L30 264.5C60 296 120 359 180 391.3C240 423.7 300 425.3 360 408.7C420 392 480 357 540 322.3C600 287.7 660 253.3 720 232.7C780 212 840 205 870 201.5L900 198L900 601L870 601C840 601 780 601 720 601C660 601 600 601 540 601C480 601 420 601 360 601C300 601 240 601 180 601C120 601 60 601 30 601L0 601Z" fill="#FFF" stroke-linecap="round" stroke-linejoin="miter"></path></svg>