<svg id="visual" viewBox="0 0 900 600" width="900" height="600" xmlns="http://www.w3.org/2000/svg" xmlns:xlink="http://www.w3.org/1999/xlink" version="1.1"><rect x="0" y="0" width="900" height="600" fill="#ead6ed"></rect><path d="M0 419L30 399C60 379 120 339 180 336.2C240 333.3 300 367.7 360 388.8C420 410 480 418 540 399C600 380 660 334 720 307.8C780 281.7 840 275.3 870 272.2L900 269L900 601L870 601C840 601 780 601 720 601C660 601 600 601 540 601C480 601 420 601 360 601C300 601 240 601 180 601C120 601 60 601 30 601L0 601Z" fill="#FFFFFF" stroke-linecap="round" stroke-linejoin="miter"></path></svg>