<svg id="visual" viewBox="0 0 900 600" width="900" height="600" xmlns="http://www.w3.org/2000/svg" xmlns:xlink="http://www.w3.org/1999/xlink" version="1.1"><rect x="0" y="0" width="900" height="600" fill="#FFF"></rect><path d="M0 394L37.5 389.3C75 384.7 150 375.3 225 349C300 322.7 375 279.3 450 291.7C525 304 600 372 675 366.2C750 360.3 825 280.7 862.5 240.8L900 201L900 0L862.5 0C825 0 750 0 675 0C600 0 525 0 450 0C375 0 300 0 225 0C150 0 75 0 37.5 0L0 0Z" fill="#AF83B6" stroke-linecap="round" stroke-linejoin="miter"></path></svg>