<svg id="visual" viewBox="0 0 900 600" width="900" height="600" xmlns="http://www.w3.org/2000/svg" xmlns:xlink="http://www.w3.org/1999/xlink" version="1.1"><rect x="0" y="0" width="900" height="600" fill="#C3CAFF"></rect><path d="M0 319L37.5 338.8C75 358.7 150 398.3 225 412.7C300 427 375 416 450 376.5C525 337 600 269 675 241.5C750 214 825 227 862.5 233.5L900 240L900 601L862.5 601C825 601 750 601 675 601C600 601 525 601 450 601C375 601 300 601 225 601C150 601 75 601 37.5 601L0 601Z" fill="#FFF" stroke-linecap="round" stroke-linejoin="miter"></path></svg>