<svg id="visual" viewBox="0 0 900 600" width="900" height="600" xmlns="http://www.w3.org/2000/svg" xmlns:xlink="http://www.w3.org/1999/xlink" version="1.1"><rect x="0" y="0" width="900" height="600" fill="#FFFFFF"></rect><path d="M0 222L30 222.2C60 222.3 120 222.7 180 248.8C240 275 300 327 360 333.2C420 339.3 480 299.7 540 283.8C600 268 660 276 720 280.3C780 284.7 840 285.3 870 285.7L900 286L900 601L870 601C840 601 780 601 720 601C660 601 600 601 540 601C480 601 420 601 360 601C300 601 240 601 180 601C120 601 60 601 30 601L0 601Z" fill="#ead6ed" stroke-linecap="round" stroke-linejoin="miter"></path></svg>